<svg width="81" height="85" viewBox="0 0 81 85" fill="none" xmlns="http://www.w3.org/2000/svg">
<path d="M57.36 51.18C57.68 51.66 57.98 52.4 58.26 53.4C58.54 54.4 58.72 55.36 58.8 56.28L52.2 59.46C51 59.18 49.76 58.76 48.48 58.2C47.24 57.6 46.1 56.94 45.06 56.22C44.02 55.5 43.2 54.82 42.6 54.18L36.78 39.66L32.1 43.74L32.16 58.5L28.68 59.34C27.64 58.82 26.58 58.12 25.5 57.24C24.42 56.32 23.54 55.22 22.86 53.94L25.8 38.34L25.08 16.5L26.82 15.3C27.26 15.38 27.86 15.6 28.62 15.96C29.42 16.32 30.2 16.72 30.96 17.16C31.72 17.6 32.28 18.02 32.64 18.42L32.16 37.32L50.1 16.5H52.56C53.96 18.54 54.86 20.82 55.26 23.34L42.18 34.86C43.42 37.94 44.84 41.1 46.44 44.34C48.08 47.54 49.78 50.32 51.54 52.68L57.36 51.18Z" fill="white"/>
<path fill-rule="evenodd" clip-rule="evenodd" d="M0 81.6156V28.4385L3 27.0253V80.1156H47.6316L43.1019 82.2494L43.51 83.1156H1.5H0V81.6156ZM48.3028 83.1156H55.3428L61.7115 80.1156H54.6715L48.3028 83.1156ZM69.4226 83.1156H62.3827L68.7514 80.1156H75.7913L69.4226 83.1156ZM76.4625 83.1156H79.1156H80.6156V81.6156V81.1593L76.4625 83.1156ZM80.6156 77.8431V74.5269L77.6156 75.9401V79.2563L80.6156 77.8431ZM80.6156 67.8946V71.2108L77.6156 72.6239V69.3077L80.6156 67.8946ZM77.6156 65.9916L80.6156 64.5784V4V2.5H79.1156H55.0648L48.6961 5.5H77.6156V65.9916ZM48.0249 2.5L41.6562 5.5H34.6163L40.985 2.5H48.0249ZM0 21.8061V25.1223L3 23.7092V20.393L0 21.8061ZM27.5764 5.5L33.9451 2.5H26.9052L20.5365 5.5H27.5764ZM0 18.49V15.1738L3 13.7606V17.0768L0 18.49ZM3 5.5H13.4966L19.8653 2.5H1.5H0V4V11.8576L3 10.4445V5.5Z" fill="white"/>
</svg>
